<svg aria-hidden="true" style="position: absolute; width: 0; height: 0; overflow: hidden;" version="1.1" xmlns="http://www.w3.org/2000/svg" xmlns:xlink="http://www.w3.org/1999/xlink">
<defs>
<symbol id="icon-envelope" viewBox="0 0 32 32">
<path fill="#2196f3" style="fill: var(--color1, #2196f3)" d="M29 4h-26c-1.654 0-3 1.346-3 3v18c0 1.654 1.346 3 3 3h26c1.654 0 3-1.346 3-3v-18c0-1.654-1.346-3-3-3zM29 6c0.136 0 0.266 0.028 0.384 0.078l-13.384 11.6-13.384-11.6c0.113-0.049 0.245-0.078 0.384-0.078h26zM29 26h-26c-0.552 0-1-0.448-1-1v0-16.81l13.344 11.566c0.175 0.152 0.404 0.245 0.656 0.245s0.481-0.093 0.657-0.246l-0.001 0.001 13.344-11.566v16.81c0 0.552-0.448 1-1 1v0z"></path>
</symbol>
<symbol id="icon-facebook" viewBox="0 0 32 32">
<path fill="#afb1b8" style="fill: var(--color2, #afb1b8)" d="M21.328 5.312h2.923v-5.088c-1.232-0.143-2.66-0.224-4.107-0.224-0.052 0-0.104 0-0.157 0l0.008-0c-4.213 0-7.099 2.65-7.099 7.52v4.48h-4.646v5.688h4.646v14.312h5.699v-14.31h4.459l0.709-5.688h-5.17v-3.922c0-1.643 0.443-2.768 2.734-2.768z"></path>
</symbol>
<symbol id="icon-instagram" viewBox="0 0 32 32">
<path fill="#fff" style="fill: var(--color3, #fff)" d="M27.406 6.72c-0.053-1.215-0.249-2.049-0.53-2.773-0.303-0.794-0.753-1.47-1.321-2.026l-0.001-0.001c-0.557-0.566-1.232-1.014-1.984-1.305l-0.038-0.013c-0.728-0.281-1.558-0.477-2.773-0.53-1.223-0.058-1.611-0.072-4.715-0.072-3.103 0-3.491 0.014-4.711 0.067-1.214 0.053-2.049 0.249-2.771 0.53-0.794 0.303-1.471 0.753-2.028 1.321l-0.001 0.001c-0.565 0.557-1.013 1.232-1.304 1.984l-0.013 0.038c-0.282 0.728-0.478 1.558-0.531 2.773-0.058 1.223-0.072 1.611-0.072 4.715 0 3.103 0.014 3.491 0.067 4.711 0.054 1.215 0.25 2.049 0.531 2.773 0.305 0.793 0.754 1.469 1.32 2.027l0.001 0.001c0.571 0.581 1.264 1.031 2.023 1.317 0.728 0.282 1.559 0.479 2.773 0.531 1.219 0.054 1.608 0.067 4.711 0.067 3.104 0 3.493-0.014 4.711-0.067 1.215-0.053 2.049-0.249 2.773-0.53 1.541-0.607 2.738-1.804 3.331-3.306l0.014-0.040c0.281-0.728 0.478-1.559 0.531-2.773 0.054-1.219 0.066-1.608 0.066-4.711s-0.005-3.491-0.057-4.711zM25.349 16.053c-0.050 1.117-0.238 1.719-0.393 2.121-0.394 1-1.171 1.776-2.146 2.16l-0.026 0.009c-0.4 0.157-1.008 0.344-2.12 0.393-1.206 0.054-1.567 0.067-4.617 0.067-3.049 0-3.416-0.014-4.617-0.067-1.117-0.049-1.719-0.237-2.121-0.393-0.515-0.192-0.953-0.483-1.311-0.852l-0.001-0.001c-0.369-0.36-0.66-0.798-0.846-1.288l-0.008-0.024c-0.155-0.402-0.343-1.009-0.392-2.121-0.054-1.206-0.067-1.568-0.067-4.617 0-3.050 0.014-3.417 0.067-4.617 0.049-1.117 0.237-1.719 0.392-2.121 0.192-0.516 0.484-0.955 0.856-1.312l0.001-0.001c0.36-0.369 0.799-0.66 1.29-0.845l0.024-0.008c0.4-0.157 1.008-0.343 2.12-0.393 1.206-0.053 1.567-0.066 4.617-0.066 3.054 0 3.416 0.014 4.617 0.066 1.117 0.049 1.719 0.237 2.121 0.393 0.495 0.183 0.946 0.473 1.312 0.853 0.379 0.371 0.67 0.817 0.854 1.314 0.155 0.4 0.343 1.008 0.392 2.12 0.054 1.206 0.067 1.567 0.067 4.617 0 3.049-0.014 3.406-0.067 4.613z"></path>
<path fill="#fff" style="fill: var(--color3, #fff)" d="M16.042 5.559c-0 0-0.001 0-0.001 0-3.244 0-5.873 2.63-5.873 5.873s2.63 5.873 5.873 5.873c3.244 0 5.873-2.63 5.873-5.873 0-0 0-0.001 0-0.001v0c-0.001-3.243-2.629-5.871-5.872-5.872h-0zM16.042 15.239c-2.104-0-3.809-1.706-3.809-3.809s1.705-3.809 3.809-3.809c0 0 0 0 0.001 0h-0c2.104 0 3.81 1.706 3.81 3.81s-1.706 3.81-3.81 3.81v0zM23.518 5.327c0 0.757-0.614 1.371-1.371 1.371s-1.371-0.614-1.371-1.371v0c0-0.757 0.614-1.371 1.371-1.371s1.371 0.614 1.371 1.371v0z"></path>
</symbol>
<symbol id="icon-linkedin" viewBox="0 0 32 32">
<path fill="#afb1b8" style="fill: var(--color2, #afb1b8)" d="M31.992 32h0.008v-11.738c0-5.741-1.235-10.163-7.947-10.163-3.227 0-5.392 1.77-6.277 3.45h-0.093v-2.914h-6.365v21.363h6.627v-10.578c0-2.786 0.528-5.48 3.978-5.48 3.398 0 3.45 3.179 3.45 5.658v10.402h6.619zM0.528 10.635h6.635v21.365h-6.635v-21.365zM3.843 0c-2.123 0-3.843 1.721-3.843 3.843v0c0 2.12 1.722 3.878 3.843 3.878 2.12 0 3.842-1.757 3.842-3.878s-1.72-3.841-3.841-3.843h-0z"></path>
</symbol>
<symbol id="icon-smartphone" viewBox="0 0 32 32">
<path fill="#757575" style="fill: var(--color4, #757575)" d="M23 0h-14c-1.654 0-3 1.346-3 3v26c0 1.654 1.346 3 3 3h14c1.654 0 3-1.346 3-3v-26c0-1.654-1.346-3-3-3zM9 2h14c0.552 0 1 0.448 1 1v0 21h-16v-21c0-0.552 0.448-1 1-1v0zM23 30h-14c-0.552 0-1-0.448-1-1v0-3h16v3c0 0.552-0.448 1-1 1v0z"></path>
<path fill="#757575" style="fill: var(--color4, #757575)" d="M10.708 27.478c0.18 0.163 0.293 0.399 0.293 0.66s-0.113 0.497-0.292 0.659l-0.001 0.001c-0.186 0.17-0.435 0.275-0.708 0.275s-0.522-0.104-0.709-0.275l0.001 0.001c-0.18-0.163-0.293-0.399-0.293-0.66s0.113-0.497 0.292-0.659l0.001-0.001c0.186-0.17 0.435-0.275 0.708-0.275s0.522 0.104 0.709 0.275l-0.001-0.001z"></path>
</symbol>
<symbol id="icon-twitter" viewBox="0 0 32 32">
<path fill="#afb1b8" style="fill: var(--color2, #afb1b8)" d="M32 6.078c-1.1 0.493-2.376 0.857-3.713 1.028l-0.068 0.007c1.36-0.817 2.382-2.078 2.873-3.579l0.013-0.046c-1.197 0.722-2.591 1.273-4.076 1.573l-0.084 0.014c-1.2-1.279-2.9-2.076-4.787-2.076-3.622 0-6.558 2.936-6.558 6.558 0 0.001 0 0.003 0 0.004v-0c0 0.52 0.043 1.021 0.152 1.496-5.454-0.266-10.28-2.88-13.522-6.861-0.564 0.949-0.899 2.092-0.902 3.313v0.001c0 2.272 1.171 4.286 2.914 5.451-1.091-0.030-2.107-0.325-2.994-0.823l0.033 0.017v0.072c0.003 3.165 2.236 5.807 5.213 6.44l0.043 0.008c-0.499 0.136-1.071 0.215-1.662 0.215-0.020 0-0.041-0-0.061-0l0.003 0c-0.419 0-0.843-0.024-1.242-0.112 0.85 2.598 3.261 4.509 6.13 4.57-2.215 1.746-5.045 2.8-8.122 2.8-0.004 0-0.008 0-0.013 0h0.001c-0.018 0-0.040 0-0.062 0-0.531 0-1.055-0.034-1.569-0.099l0.061 0.006c2.826 1.846 6.287 2.944 10.004 2.944 0.021 0 0.042-0 0.063-0h-0.003c12.072 0 18.672-10 18.672-18.669 0-0.288-0.010-0.57-0.024-0.848 1.299-0.936 2.39-2.064 3.258-3.355l0.030-0.047z"></path>
</symbol>
</defs>
</svg>
